<svg width="25" height="25" viewBox="0 0 25 25" fill="none" xmlns="http://www.w3.org/2000/svg">
<g opacity="0.5" clip-path="url(#clip0_224_115)">
<path d="M23.9587 19.7917C23.9587 20.3442 23.7392 20.8741 23.3485 21.2648C22.9578 21.6555 22.4279 21.875 21.8753 21.875H3.12533C2.57279 21.875 2.04289 21.6555 1.65219 21.2648C1.26149 20.8741 1.04199 20.3442 1.04199 19.7917V8.33333C1.04199 7.7808 1.26149 7.25089 1.65219 6.86019C2.04289 6.46949 2.57279 6.25 3.12533 6.25H7.29199L9.37533 3.125H15.6253L17.7087 6.25H21.8753C22.4279 6.25 22.9578 6.46949 23.3485 6.86019C23.7392 7.25089 23.9587 7.7808 23.9587 8.33333V19.7917Z" stroke="#4A2C24" stroke-width="4" stroke-linecap="round" stroke-linejoin="round"/>
<path d="M12.5003 17.7083C14.8015 17.7083 16.667 15.8429 16.667 13.5417C16.667 11.2405 14.8015 9.375 12.5003 9.375C10.1991 9.375 8.33366 11.2405 8.33366 13.5417C8.33366 15.8429 10.1991 17.7083 12.5003 17.7083Z" stroke="#4A2C24" stroke-width="4" stroke-linecap="round" stroke-linejoin="round"/>
</g>
<defs>
<clipPath id="clip0_224_115">
<rect width="25" height="25" fill="white"/>
</clipPath>
</defs>
</svg>
