<svg version="1.1" id="svg747" xml:space="preserve" width="300" height="300" viewBox="0 0 32 32" xmlns="http://www.w3.org/2000/svg" xmlns:svg="http://www.w3.org/2000/svg" xmlns:xlink="http://www.w3.org/1999/xlink" xmlns:svgjs="http://svgjs.dev/svgjs"><rect width="32" height="32" rx="6.4" ry="6.4" x="0" y="0" shape="true" transform="matrix(1,0,0,1,0,0)" fill-opacity="1" fill="#9c6b3f"/><g width="100%" height="100%" transform="matrix(0.89,0,0,0.89,1.76001473903656,1.760000104904174)"><defs id="defs751"><clipPath clipPathUnits="userSpaceOnUse" id="clipPath761"><path d="M 0,24 H 24 V 0 H 0 Z" id="path759" fill="#2d1b15" fill-opacity="1" data-original-color="#000000ff" stroke="none" stroke-opacity="1"/></clipPath></defs><g id="g753" transform="matrix(1.3333333,0,0,-1.3333333,0,32)"><g id="g755"><g id="g757" clip-path="url(#clipPath761)"><g id="g763" transform="translate(18.7471,22.5)"><path d="m 0,0 h -13.494 c -1.521,0 -2.753,-1.232 -2.753,-2.753 0,-0.675 0.247,-1.325 0.695,-1.829 L -9.247,-12.3 V -18 l 5,-3 v 8.65 l 6.305,7.768 c 0.448,0.504 0.695,1.154 0.695,1.829 C 2.753,-1.232 1.521,0 0,0 Z" style="stroke-linecap: round; stroke-linejoin: round; stroke-miterlimit: 10; stroke-dasharray: none;" id="path765" fill="none" fill-opacity="1" stroke="#2d1b15" stroke-opacity="1" data-original-stroke-color="#000000ff" stroke-width="3" data-original-stroke-width="3"/></g></g></g></g></g></svg>