<svg width="30" height="30" viewBox="0 0 30 30" fill="none" xmlns="http://www.w3.org/2000/svg">
<path d="M16.0218 3.40313C15.4453 2.86876 14.5546 2.86876 13.9828 3.40313L3.48277 13.1531C3.03277 13.575 2.88277 14.2266 3.10777 14.7984C3.33277 15.3703 3.8812 15.75 4.49995 15.75H5.24995V24C5.24995 25.6547 6.59527 27 8.24995 27H21.75C23.4046 27 24.75 25.6547 24.75 24V15.75H25.5C26.1187 15.75 26.6718 15.3703 26.8968 14.7984C27.1218 14.2266 26.9718 13.5703 26.5218 13.1531L16.0218 3.40313ZM14.25 18H15.75C16.9921 18 18 19.0078 18 20.25V24.75H12V20.25C12 19.0078 13.0078 18 14.25 18Z" fill="#4A2C24"/>
</svg>
