<svg width="30" height="30" viewBox="0 0 30 30" fill="none" xmlns="http://www.w3.org/2000/svg">
<path d="M12.1453 3.44531C12.2859 2.75156 12.9 2.25 13.6125 2.25H16.4156C17.1281 2.25 17.7422 2.75156 17.8828 3.44531L18.5625 6.72656C19.2234 7.00781 19.8422 7.36875 20.4047 7.79531L23.5828 6.74063C24.2578 6.51562 24.9985 6.79688 25.3547 7.41562L26.7563 9.84375C27.1125 10.4625 26.9859 11.2406 26.4516 11.7141L23.9531 13.9359C23.9953 14.2828 24.0141 14.6391 24.0141 15C24.0141 15.3609 23.9906 15.7172 23.9531 16.0641L26.4563 18.2906C26.9906 18.7641 27.1125 19.5469 26.761 20.1609L25.3594 22.5891C25.0031 23.2031 24.2625 23.4891 23.5875 23.2641L20.4094 22.2094C19.8422 22.6359 19.2234 22.9922 18.5672 23.2781L17.8922 26.5547C17.7469 27.2531 17.1328 27.75 16.425 27.75H13.6219C12.9094 27.75 12.2953 27.2484 12.1547 26.5547L11.4797 23.2781C10.8188 22.9969 10.2047 22.6359 9.63751 22.2094L6.44532 23.2641C5.77032 23.4891 5.0297 23.2078 4.67345 22.5891L3.27189 20.1609C2.91564 19.5422 3.0422 18.7641 3.57657 18.2906L6.0797 16.0641C6.03751 15.7172 6.01876 15.3609 6.01876 15C6.01876 14.6391 6.0422 14.2828 6.0797 13.9359L3.57657 11.7094C3.0422 11.2359 2.92032 10.4531 3.27189 9.83906L4.67345 7.41094C5.0297 6.79219 5.77032 6.51094 6.44532 6.73594L9.62345 7.79062C10.1906 7.36406 10.8094 7.00781 11.4656 6.72187L12.1453 3.44531ZM15.0141 18.75C17.0859 18.7406 18.7594 17.0578 18.75 14.9859C18.7406 12.9141 17.0578 11.2406 14.986 11.25C12.9141 11.2594 11.2406 12.9422 11.25 15.0141C11.2594 17.0859 12.9422 18.7594 15.0141 18.75Z" fill="#4A2C24"/>
</svg>
