<svg width="30" height="30" viewBox="0 0 30 30" fill="none" xmlns="http://www.w3.org/2000/svg">
<path d="M7.5 4.5C5.84531 4.5 4.5 5.84531 4.5 7.5V22.5C4.5 24.1547 5.84531 25.5 7.5 25.5H22.5C24.1547 25.5 25.5 24.1547 25.5 22.5V7.5C25.5 5.84531 24.1547 4.5 22.5 4.5H7.5ZM10.5 8.25C11.7422 8.25 12.75 9.25781 12.75 10.5C12.75 11.7422 11.7422 12.75 10.5 12.75C9.25781 12.75 8.25 11.7422 8.25 10.5C8.25 9.25781 9.25781 8.25 10.5 8.25ZM17.25 13.5C17.6438 13.5 18.0047 13.7063 18.2109 14.0391L22.3359 20.7891C22.5469 21.1359 22.5562 21.5719 22.3594 21.9281C22.1625 22.2844 21.7828 22.5 21.375 22.5H8.625C8.20781 22.5 7.81875 22.2656 7.62656 21.8953C7.43437 21.525 7.4625 21.075 7.70156 20.7328L10.3266 16.9828C10.5375 16.6828 10.8797 16.5047 11.25 16.5047C11.6203 16.5047 11.9625 16.6828 12.1734 16.9828L13.4109 18.7547L16.2891 14.0438C16.4953 13.7109 16.8562 13.5047 17.25 13.5047V13.5Z" fill="#4A2C24"/>
</svg>
